<svg width="18" height="19" viewBox="0 0 18 19" version="1.1" xmlns="http://www.w3.org/2000/svg" xmlns:xlink="http://www.w3.org/1999/xlink" xmlns:figma="http://www.figma.com/figma/ns">
<title>call icon</title>
<desc>Created using Figma</desc>
<g id="Canvas" transform="translate(-5078 335)" figma:type="canvas">
<g id="call icon" style="mix-blend-mode:normal;" figma:type="frame">
<g id="Imported Layers" style="mix-blend-mode:normal;isolation:isolate;" opacity="0.54" figma:type="vector">
<use xlink:href="#path0_fill" transform="translate(5078 -334.75)" style="mix-blend-mode:normal;"/>
</g>
</g>
</g>
<defs>
<path id="path0_fill" fill-rule="evenodd" d="M 1 0C 0.447 0 0 0.447 0 1C 0 10.388 7.612 18 17 18C 17.553 18 18 17.553 18 17L 18 13.5C 18 12.948 17.553 12.501 17 12.501C 15.752 12.501 14.552 12.3 13.428 11.932C 13.328 11.9 13.223 11.884 13.119 11.884C 12.864 11.884 12.608 11.982 12.413 12.177L 10.212 14.38C 7.38 12.94 5.065 10.625 3.623 7.794L 5.823 5.587C 6.098 5.313 6.179 4.918 6.068 4.572C 5.7 3.447 5.499 2.247 5.499 1C 5.499 0.447 5.052 0 4.5 0L 1 0Z"/>
</defs>
</svg>
