<?xml version="1.0" encoding="UTF-8"?>
<!DOCTYPE svg PUBLIC "-//W3C//DTD SVG 1.1//EN" "http://www.w3.org/Graphics/SVG/1.1/DTD/svg11.dtd">
<!-- Creator: CorelDRAW X7 -->
<svg xmlns="http://www.w3.org/2000/svg" xml:space="preserve" width="8.5in" height="11in" version="1.1" style="shape-rendering:geometricPrecision; text-rendering:geometricPrecision; image-rendering:optimizeQuality; fill-rule:evenodd; clip-rule:evenodd"
viewBox="0 0 8500 11000"
 xmlns:xlink="http://www.w3.org/1999/xlink">
 <defs>
  <style type="text/css">
   <![CDATA[
    .fil0 {fill:#BDBFC1}
   ]]>
  </style>
 </defs>
 <g id="Layer_x0020_1">
  <metadata id="CorelCorpID_0Corel-Layer"/>
  <path class="fil0" d="M4297 3410c-45,0 -84,-32 -126,-48 60,-119 69,-94 70,-225 2,-181 31,-637 -53,-793 -54,-99 -315,-3 -433,-270 -102,-231 -69,-358 -241,-438 64,-29 170,9 199,54 102,160 64,202 196,342 78,84 317,165 325,55 28,-353 22,-530 63,-487 42,44 40,239 63,487 11,110 248,29 326,-55 132,-140 94,-182 196,-342 29,-45 135,-83 199,-54 -172,80 -139,207 -241,438 -119,267 -380,171 -433,270 -84,156 -55,612 -54,793 2,131 11,106 70,225 -42,16 -80,48 -126,48zm0 -1976c-48,0 -87,-39 -87,-88 0,-48 39,-87 87,-87 49,0 88,39 88,87 0,49 -39,88 -88,88z"/>
  <path class="fil0" d="M3865 3567c-35,30 -85,30 -127,45 -31,-130 -8,-117 -92,-218 -114,-139 -386,-507 -551,-573 -104,-41 -242,200 -504,72 -227,-111 -283,-230 -467,-181 31,-63 136,-102 188,-86 181,56 179,113 370,136 113,14 349,-78 284,-167 -205,-289 -324,-420 -264,-414 60,6 184,158 361,333 79,77 208,-137 214,-252 11,-192 -45,-199 -70,-387 -7,-54 50,-152 118,-171 -81,173 27,249 97,492 81,280 -181,374 -158,484 36,174 351,505 468,642 85,99 76,75 199,128 -22,39 -31,88 -66,117zm-1270 -1513c-37,31 -92,26 -123,-11 -32,-37 -27,-92 10,-123 37,-31 93,-27 124,10 31,37 26,93 -11,124z"/>
  <path class="fil0" d="M3635 3966c-8,45 -46,77 -69,116 -107,-80 -81,-84 -210,-108 -177,-34 -622,-141 -790,-85 -107,35 -57,309 -341,379 -245,61 -364,6 -474,162 -17,-69 39,-166 89,-187 175,-73 210,-28 371,-133 96,-63 217,-284 110,-312 -343,-88 -518,-113 -468,-146 50,-34 242,2 490,22 110,9 72,-239 3,-330 -116,-154 -163,-124 -303,-252 -40,-37 -59,-148 -19,-206 49,184 180,173 390,314 242,163 102,403 190,473 139,109 593,161 771,190 130,22 107,9 235,-29 8,44 33,87 25,132zm-1946 -343c-9,47 -54,79 -102,71 -47,-9 -79,-54 -70,-102 8,-47 53,-79 101,-71 47,9 79,54 71,102z"/>
  <path class="fil0" d="M3715 4419c23,39 14,89 21,133 -133,8 -116,-12 -230,52 -157,89 -566,293 -660,444 -59,95 155,273 -17,509 -149,204 -275,238 -259,428 -57,-41 -77,-152 -52,-200 87,-168 142,-156 198,-340 34,-110 -16,-357 -115,-310 -320,153 -470,247 -453,189 16,-58 187,-154 390,-298 90,-64 -99,-229 -211,-255 -187,-43 -204,11 -393,2 -55,-3 -141,-75 -148,-145 156,109 249,16 501,-11 290,-31 337,244 449,240 178,-5 559,-258 714,-350 113,-66 87,-61 160,-173 35,28 82,46 105,85zm-1712 988c25,42 10,96 -32,120 -41,24 -95,10 -119,-32 -24,-42 -10,-96 32,-120 42,-24 95,-10 119,32z"/>
  <path class="fil0" d="M4067 4715c43,15 68,59 102,88 -97,92 -97,65 -143,188 -63,169 -246,588 -220,764 16,111 294,110 314,401 17,252 -58,360 77,494 -70,6 -157,-66 -169,-119 -41,-185 9,-212 -66,-389 -45,-105 -242,-263 -288,-162 -146,322 -201,491 -226,436 -24,-56 45,-238 108,-479 28,-107 -223,-112 -325,-61 -172,88 -150,140 -301,255 -43,33 -156,32 -206,-17 190,-16 201,-147 377,-329 202,-211 415,-31 498,-105 133,-119 262,-557 322,-727 44,-124 27,-104 12,-236 45,-1 92,-18 134,-2zm-676 1857c46,16 69,67 53,112 -17,45 -67,69 -112,52 -46,-16 -69,-66 -53,-112 17,-45 67,-69 112,-52z"/>
  <path class="fil0" d="M4528 4715c42,-16 89,1 134,2 -15,132 -32,112 12,236 60,170 189,608 322,727 83,74 296,-106 498,105 175,182 187,313 377,329 -51,49 -163,50 -206,17 -151,-115 -129,-167 -301,-255 -102,-51 -354,-46 -325,61 95,341 162,505 108,479 -55,-27 -119,-211 -226,-436 -48,-100 -243,57 -288,162 -75,177 -25,204 -66,389 -12,53 -99,125 -169,119 135,-134 60,-242 77,-494 20,-291 298,-290 314,-401 25,-176 -157,-595 -221,-764 -46,-123 -45,-96 -142,-188 34,-29 59,-73 102,-88zm675 1857c46,-17 96,7 113,52 16,46 -7,96 -53,112 -45,17 -95,-7 -112,-52 -16,-45 7,-96 52,-112z"/>
  <path class="fil0" d="M4880 4419c23,-39 70,-57 105,-85 73,112 47,107 160,173 155,92 536,345 714,350 112,4 159,-271 449,-240 252,27 344,120 501,11 -7,70 -93,142 -148,145 -189,9 -206,-45 -394,-2 -111,26 -301,193 -210,255 292,200 449,283 390,298 -58,15 -226,-85 -453,-189 -100,-46 -149,200 -115,310 56,184 111,172 198,340 25,48 5,159 -52,200 16,-190 -110,-224 -259,-428 -172,-236 42,-414 -17,-509 -94,-151 -503,-355 -660,-444 -114,-64 -97,-44 -230,-52 7,-44 -2,-94 21,-133zm1711 988c25,-42 78,-56 120,-32 42,24 56,78 32,120 -24,42 -78,56 -120,32 -41,-24 -56,-78 -32,-120z"/>
  <path class="fil0" d="M4960 3966c-8,-45 17,-88 25,-132 128,38 105,51 234,29 178,-29 633,-81 772,-190 88,-70 -52,-310 190,-473 210,-141 341,-130 390,-314 40,58 21,169 -19,206 -140,128 -187,98 -303,252 -69,91 -107,341 3,330 352,-34 526,-71 490,-22 -35,48 -228,80 -468,146 -107,30 14,249 110,312 161,105 196,60 371,133 50,21 106,118 88,187 -109,-156 -228,-101 -473,-162 -284,-70 -234,-344 -341,-379 -168,-56 -613,51 -790,85 -129,24 -103,28 -210,108 -23,-39 -61,-71 -69,-116zm1946 -343c-8,-48 23,-93 71,-102 48,-8 93,24 101,71 9,48 -23,93 -71,102 -47,8 -93,-24 -101,-71z"/>
  <path class="fil0" d="M4730 3567c-35,-29 -44,-78 -66,-117 123,-53 114,-29 199,-128 117,-137 432,-468 468,-642 23,-110 -239,-204 -158,-484 70,-243 177,-319 97,-492 68,19 125,117 118,171 -25,188 -81,195 -70,387 6,115 137,330 214,252 248,-253 357,-393 361,-333 4,60 -123,209 -265,414 -62,90 171,181 285,167 191,-23 189,-80 370,-136 52,-16 157,23 188,86 -184,-49 -240,70 -467,181 -262,128 -400,-113 -504,-72 -165,66 -437,434 -552,573 -83,101 -60,88 -91,218 -42,-15 -92,-15 -127,-45zm1270 -1513c-37,-31 -42,-87 -11,-124 31,-37 87,-41 124,-10 37,31 41,86 10,123 -31,37 -86,42 -123,11z"/>
  <path class="fil0" d="M4297 4531c-247,0 -447,-201 -447,-448 0,-248 200,-448 447,-448 248,0 448,200 448,448 0,247 -200,448 -448,448z"/>
 </g>
</svg>
