<?xml version="1.0" encoding="UTF-8"?>
<svg width="945px" height="931px" viewBox="0 0 945 931" version="1.1" xmlns="http://www.w3.org/2000/svg" xmlns:xlink="http://www.w3.org/1999/xlink">
    <!-- Generator: Sketch 42 (36781) - http://www.bohemiancoding.com/sketch -->
    <title>zivatar-logo</title>
    <desc>Created with Sketch.</desc>
    <defs></defs>
    <g id="Page-1" stroke="none" stroke-width="1" fill="none" fill-rule="evenodd">
        <g id="Artboard" transform="translate(-38.000000, -45.000000)" fill="#FFFFFF">
            <g id="zivatar-logo" transform="translate(38.000000, 45.000000)">
                <g id="Layer_x0020_1">
                    <path d="M472.415094,365.264151 C464.773585,365.264151 458.150943,359.830189 451.018868,357.113208 C461.207547,336.90566 462.735849,341.150943 462.90566,318.90566 C463.245283,288.169811 468.169811,210.735849 453.90566,184.245283 C444.735849,167.433962 400.415094,183.735849 380.377358,138.396226 C363.056604,99.1698113 368.660377,77.6037736 339.45283,64.0188679 C350.320755,59.0943396 368.320755,65.5471698 373.245283,73.1886792 C390.566038,100.358491 384.113208,107.490566 406.528302,131.264151 C419.773585,145.528302 460.358491,159.283019 461.716981,140.603774 C466.471698,80.6603774 465.45283,50.6037736 472.415094,57.9056604 C479.54717,65.3773585 479.207547,98.490566 483.113208,140.603774 C484.981132,159.283019 525.226415,145.528302 538.471698,131.264151 C560.886792,107.490566 554.433962,100.358491 571.754717,73.1886792 C576.679245,65.5471698 594.679245,59.0943396 605.54717,64.0188679 C576.339623,77.6037736 581.943396,99.1698113 564.622642,138.396226 C544.415094,183.735849 500.09434,167.433962 491.09434,184.245283 C476.830189,210.735849 481.754717,288.169811 481.924528,318.90566 C482.264151,341.150943 483.792453,336.90566 493.811321,357.113208 C486.679245,359.830189 480.226415,365.264151 472.415094,365.264151 Z M472.415094,29.7169811 C464.264151,29.7169811 457.641509,23.0943396 457.641509,14.7735849 C457.641509,6.62264151 464.264151,0 472.415094,0 C480.735849,0 487.358491,6.62264151 487.358491,14.7735849 C487.358491,23.0943396 480.735849,29.7169811 472.415094,29.7169811 Z" id="Shape"></path>
                    <path d="M399.056604,391.924528 C393.113208,397.018868 384.622642,397.018868 377.490566,399.566038 C372.226415,377.490566 376.132075,379.698113 361.867925,362.54717 C342.509434,338.943396 296.320755,276.45283 268.301887,265.245283 C250.641509,258.283019 227.207547,299.207547 182.716981,277.471698 C144.169811,258.622642 134.660377,238.415094 103.415094,246.735849 C108.679245,236.037736 126.509434,229.415094 135.339623,232.132075 C166.075472,241.641509 165.735849,251.320755 198.169811,255.226415 C217.358491,257.603774 257.433962,241.981132 246.396226,226.867925 C211.584906,177.792453 191.377358,155.54717 201.566038,156.566038 C211.754717,157.584906 232.811321,183.396226 262.867925,213.113208 C276.283019,226.188679 298.188679,189.849057 299.207547,170.320755 C301.075472,137.716981 291.566038,136.528302 287.320755,104.603774 C286.132075,95.4339623 295.811321,78.7924528 307.358491,75.5660377 C293.603774,104.943396 311.943396,117.849057 323.830189,159.113208 C337.584906,206.660377 293.09434,222.622642 297,241.301887 C303.113208,270.849057 356.603774,327.056604 376.471698,350.320755 C390.90566,367.132075 389.377358,363.056604 410.264151,372.056604 C406.528302,378.679245 405,387 399.056604,391.924528 Z M183.396226,135 C177.113208,140.264151 167.773585,139.415094 162.509434,133.132075 C157.075472,126.849057 157.924528,117.509434 164.207547,112.245283 C170.490566,106.981132 180,107.660377 185.264151,113.943396 C190.528302,120.226415 189.679245,129.735849 183.396226,135 Z" id="Shape"></path>
                    <path d="M360,459.679245 C358.641509,467.320755 352.188679,472.754717 348.283019,479.377358 C330.113208,465.792453 334.528302,465.113208 312.622642,461.037736 C282.566038,455.264151 207,437.09434 178.471698,446.603774 C160.301887,452.54717 168.792453,499.075472 120.566038,510.962264 C78.9622642,521.320755 58.754717,511.981132 40.0754717,538.471698 C37.1886792,526.754717 46.6981132,510.283019 55.1886792,506.716981 C84.9056604,494.320755 90.8490566,501.962264 118.188679,484.132075 C134.490566,473.433962 155.037736,435.90566 136.867925,431.150943 C78.6226415,416.207547 48.9056604,411.962264 57.3962264,406.358491 C65.8867925,400.584906 98.490566,406.698113 140.603774,410.09434 C159.283019,411.622642 152.830189,369.509434 141.113208,354.056604 C121.415094,327.90566 113.433962,333 89.6603774,311.264151 C82.8679245,304.981132 79.6415094,286.132075 86.4339623,276.283019 C94.754717,307.528302 117,305.660377 152.660377,329.603774 C193.754717,357.283019 169.981132,398.037736 184.924528,409.924528 C208.528302,428.433962 285.622642,437.264151 315.849057,442.188679 C337.924528,445.924528 334.018868,443.716981 355.754717,437.264151 C357.113208,444.735849 361.358491,452.037736 360,459.679245 Z M29.5471698,401.433962 C28.0188679,409.415094 20.3773585,414.849057 12.2264151,413.490566 C4.24528302,411.962264 -1.18867925,404.320755 0.339622642,396.169811 C1.69811321,388.188679 9.33962264,382.754717 17.490566,384.113208 C25.4716981,385.641509 30.9056604,393.283019 29.5471698,401.433962 Z" id="Shape"></path>
                    <path d="M373.584906,536.603774 C377.490566,543.226415 375.962264,551.716981 377.150943,559.188679 C354.566038,560.54717 357.45283,557.150943 338.09434,568.018868 C311.433962,583.132075 241.981132,617.773585 226.018868,643.415094 C216,659.54717 252.339623,689.773585 223.132075,729.849057 C197.830189,764.490566 176.433962,770.264151 179.150943,802.528302 C169.471698,795.566038 166.075472,776.716981 170.320755,768.566038 C185.09434,740.037736 194.433962,742.075472 203.943396,710.830189 C209.716981,692.150943 201.226415,650.207547 184.415094,658.188679 C130.075472,684.169811 104.603774,700.132075 107.490566,690.283019 C110.207547,680.433962 139.245283,664.132075 173.716981,639.679245 C189,628.811321 156.90566,600.792453 137.886792,596.377358 C106.132075,589.075472 103.245283,598.245283 71.1509434,596.716981 C61.8113208,596.207547 47.2075472,583.981132 46.0188679,572.09434 C72.509434,590.603774 88.3018868,574.811321 131.09434,570.226415 C180.339623,564.962264 188.320755,611.660377 207.339623,610.981132 C237.566038,610.132075 302.264151,567.169811 328.584906,551.54717 C347.773585,540.339623 343.358491,541.188679 355.754717,522.169811 C361.698113,526.924528 369.679245,529.981132 373.584906,536.603774 Z M82.8679245,704.377358 C87.1132075,711.509434 84.5660377,720.679245 77.4339623,724.754717 C70.4716981,728.830189 61.3018868,726.45283 57.2264151,719.320755 C53.1509434,712.188679 55.5283019,703.018868 62.6603774,698.943396 C69.7924528,694.867925 78.7924528,697.245283 82.8679245,704.377358 Z" id="Shape"></path>
                    <path d="M433.358491,586.867925 C440.660377,589.415094 444.90566,596.886792 450.679245,601.811321 C434.207547,617.433962 434.207547,612.849057 426.396226,633.735849 C415.698113,662.433962 384.622642,733.584906 389.037736,763.471698 C391.754717,782.320755 438.962264,782.150943 442.358491,831.566038 C445.245283,874.358491 432.509434,892.698113 455.433962,915.45283 C443.54717,916.471698 428.773585,904.245283 426.735849,895.245283 C419.773585,863.830189 428.264151,859.245283 415.528302,829.188679 C407.886792,811.358491 374.433962,784.528302 366.622642,801.679245 C341.830189,856.358491 332.490566,885.056604 328.245283,875.716981 C324.169811,866.207547 335.886792,835.301887 346.584906,794.377358 C351.339623,776.207547 308.716981,775.358491 291.396226,784.018868 C262.188679,798.962264 265.924528,807.792453 240.283019,827.320755 C232.981132,832.924528 213.792453,832.754717 205.301887,824.433962 C237.566038,821.716981 239.433962,799.471698 269.320755,768.566038 C303.622642,732.735849 339.792453,763.301887 353.886792,750.735849 C376.471698,730.528302 398.377358,656.150943 408.566038,627.283019 C416.037736,606.226415 413.150943,609.622642 410.603774,587.207547 C418.245283,587.037736 426.226415,584.150943 433.358491,586.867925 Z M318.566038,902.207547 C326.377358,904.924528 330.283019,913.584906 327.566038,921.226415 C324.679245,928.867925 316.188679,932.943396 308.54717,930.056604 C300.735849,927.339623 296.830189,918.849057 299.54717,911.037736 C302.433962,903.396226 310.924528,899.320755 318.566038,902.207547 Z" id="Shape"></path>
                    <path d="M511.641509,586.867925 C518.773585,584.150943 526.754717,587.037736 534.396226,587.207547 C531.849057,609.622642 528.962264,606.226415 536.433962,627.283019 C546.622642,656.150943 568.528302,730.528302 591.113208,750.735849 C605.207547,763.301887 641.377358,732.735849 675.679245,768.566038 C705.396226,799.471698 707.433962,821.716981 739.698113,824.433962 C731.037736,832.754717 712.018868,832.924528 704.716981,827.320755 C679.075472,807.792453 682.811321,798.962264 653.603774,784.018868 C636.283019,775.358491 593.490566,776.207547 598.415094,794.377358 C614.54717,852.283019 625.924528,880.132075 616.754717,875.716981 C607.415094,871.132075 596.54717,839.886792 578.377358,801.679245 C570.226415,784.698113 537.113208,811.358491 529.471698,829.188679 C516.735849,859.245283 525.226415,863.830189 518.264151,895.245283 C516.226415,904.245283 501.45283,916.471698 489.566038,915.45283 C512.490566,892.698113 499.754717,874.358491 502.641509,831.566038 C506.037736,782.150943 553.245283,782.320755 555.962264,763.471698 C560.207547,733.584906 529.301887,662.433962 518.433962,633.735849 C510.622642,612.849057 510.792453,617.433962 494.320755,601.811321 C500.09434,596.886792 504.339623,589.415094 511.641509,586.867925 Z M626.264151,902.207547 C634.075472,899.320755 642.566038,903.396226 645.45283,911.037736 C648.169811,918.849057 644.264151,927.339623 636.45283,930.056604 C628.811321,932.943396 620.320755,928.867925 617.433962,921.226415 C614.716981,913.584906 618.622642,904.924528 626.264151,902.207547 Z" id="Shape"></path>
                    <path d="M571.415094,536.603774 C575.320755,529.981132 583.301887,526.924528 589.245283,522.169811 C601.641509,541.188679 597.226415,540.339623 616.415094,551.54717 C642.735849,567.169811 707.433962,610.132075 737.660377,610.981132 C756.679245,611.660377 764.660377,564.962264 813.90566,570.226415 C856.698113,574.811321 872.320755,590.603774 898.981132,572.09434 C897.792453,583.981132 883.188679,596.207547 873.849057,596.716981 C841.754717,598.245283 838.867925,589.075472 806.943396,596.377358 C788.09434,600.792453 755.830189,629.150943 771.283019,639.679245 C820.867925,673.641509 847.528302,687.735849 837.509434,690.283019 C827.660377,692.830189 799.132075,675.849057 760.584906,658.188679 C743.603774,650.377358 735.283019,692.150943 741.056604,710.830189 C750.566038,742.075472 759.90566,740.037736 774.679245,768.566038 C778.924528,776.716981 775.528302,795.566038 765.849057,802.528302 C768.566038,770.264151 747.169811,764.490566 721.867925,729.849057 C692.660377,689.773585 729,659.54717 718.981132,643.415094 C703.018868,617.773585 633.566038,583.132075 606.90566,568.018868 C587.54717,557.150943 590.433962,560.54717 567.849057,559.188679 C569.037736,551.716981 567.509434,543.226415 571.415094,536.603774 Z M861.962264,704.377358 C866.207547,697.245283 875.207547,694.867925 882.339623,698.943396 C889.471698,703.018868 891.849057,712.188679 887.773585,719.320755 C883.698113,726.45283 874.528302,728.830189 867.396226,724.754717 C860.433962,720.679245 857.886792,711.509434 861.962264,704.377358 Z" id="Shape"></path>
                    <path d="M585,459.679245 C583.641509,452.037736 587.886792,444.735849 589.245283,437.264151 C610.981132,443.716981 607.075472,445.924528 628.981132,442.188679 C659.207547,437.264151 736.471698,428.433962 760.075472,409.924528 C775.018868,398.037736 751.245283,357.283019 792.339623,329.603774 C828,305.660377 850.245283,307.528302 858.566038,276.283019 C865.358491,286.132075 862.132075,304.981132 855.339623,311.264151 C831.566038,333 823.584906,327.90566 803.886792,354.056604 C792.169811,369.509434 785.716981,411.962264 804.396226,410.09434 C864.169811,404.320755 893.716981,398.037736 887.603774,406.358491 C881.660377,414.509434 848.886792,419.943396 808.132075,431.150943 C789.962264,436.245283 810.509434,473.433962 826.811321,484.132075 C854.150943,501.962264 860.09434,494.320755 889.811321,506.716981 C898.301887,510.283019 907.811321,526.754717 904.754717,538.471698 C886.245283,511.981132 866.037736,521.320755 824.433962,510.962264 C776.207547,499.075472 784.698113,452.54717 766.528302,446.603774 C738,437.09434 662.433962,455.264151 632.377358,461.037736 C610.471698,465.113208 614.886792,465.792453 596.716981,479.377358 C592.811321,472.754717 586.358491,467.320755 585,459.679245 Z M915.45283,401.433962 C914.09434,393.283019 919.358491,385.641509 927.509434,384.113208 C935.660377,382.754717 943.301887,388.188679 944.660377,396.169811 C946.188679,404.320755 940.754717,411.962264 932.603774,413.490566 C924.622642,414.849057 916.811321,409.415094 915.45283,401.433962 Z" id="Shape"></path>
                    <path d="M545.943396,391.924528 C540,387 538.471698,378.679245 534.735849,372.056604 C555.622642,363.056604 554.09434,367.132075 568.528302,350.320755 C588.396226,327.056604 641.886792,270.849057 648,241.301887 C651.90566,222.622642 607.415094,206.660377 621.169811,159.113208 C633.056604,117.849057 651.226415,104.943396 637.641509,75.5660377 C649.188679,78.7924528 658.867925,95.4339623 657.679245,104.603774 C653.433962,136.528302 643.924528,137.716981 645.792453,170.320755 C646.811321,189.849057 669.056604,226.358491 682.132075,213.113208 C724.245283,170.150943 742.754717,146.377358 743.433962,156.566038 C744.113208,166.754717 722.54717,192.056604 698.433962,226.867925 C687.90566,242.150943 727.471698,257.603774 746.830189,255.226415 C779.264151,251.320755 778.924528,241.641509 809.660377,232.132075 C818.490566,229.415094 836.320755,236.037736 841.584906,246.735849 C810.339623,238.415094 800.830189,258.622642 762.283019,277.471698 C717.792453,299.207547 694.358491,258.283019 676.698113,265.245283 C648.679245,276.45283 602.490566,338.943396 582.962264,362.54717 C568.867925,379.698113 572.773585,377.490566 567.509434,399.566038 C560.377358,397.018868 551.886792,397.018868 545.943396,391.924528 Z M761.603774,135 C755.320755,129.735849 754.471698,120.226415 759.735849,113.943396 C765,107.660377 774.509434,106.981132 780.792453,112.245283 C787.075472,117.509434 787.754717,126.849057 782.490566,133.132075 C777.226415,139.415094 767.886792,140.264151 761.603774,135 Z" id="Shape"></path>
                    <path d="M472.415094,555.622642 C430.471698,555.622642 396.509434,521.490566 396.509434,479.54717 C396.509434,437.433962 430.471698,403.471698 472.415094,403.471698 C514.528302,403.471698 548.490566,437.433962 548.490566,479.54717 C548.490566,521.490566 514.528302,555.622642 472.415094,555.622642 Z" id="Shape"></path>
                </g>
            </g>
        </g>
    </g>
</svg>